<?xml version="1.0" encoding="utf-8"?>
<!-- Generator: Adobe Illustrator 26.0.1, SVG Export Plug-In . SVG Version: 6.00 Build 0)  -->
<svg version="1.1" id="Layer_1" xmlns="http://www.w3.org/2000/svg" xmlns:xlink="http://www.w3.org/1999/xlink" x="0px" y="0px"
	 viewBox="0 0 393.2 505" style="enable-background:new 0 0 393.2 505;" xml:space="preserve">
<style type="text/css">
	.st0{fill:#FFFFFF;}
</style>
<path class="st0" d="M72.9,505c-3,0-5.5-2.5-5.5-5.5c0-2,1.1-3.9,2.9-4.8c1.8-1,43.7-23.7,81.6-23.7c20.4,0,36.7,6.5,52.5,12.7
	c13.4,5.3,26.1,10.3,39.7,10.3c29.7,0,71.9-10.7,72.4-10.8c2.9-0.8,5.9,1,6.7,4c0.8,2.9-1,5.9-4,6.7c-1.8,0.5-44,11.2-75.1,11.2
	c-15.7,0-29.3-5.4-43.8-11.1c-14.8-5.9-30.2-11.9-48.5-11.9c-35.1,0-75.9,22.1-76.4,22.3C74.7,504.8,73.8,505,72.9,505z"/>
<path class="st0" d="M244.1,472c-15.7,0-29.3-5.4-43.8-11.1c-14.8-5.9-30.2-11.9-48.5-11.9s-38.1,6.1-51.4,11.1l-2.6,1l-34.1-21.8
	l5.4-4.8c0.1,0,5.9-5.3,11.6-15.8c5.3-9.7,11.6-25.9,11.6-48.2c0-21.8-7.8-36-16.1-51.1s-16.9-30.7-16.9-53.9
	c0-41.3-7.7-53.3-35.9-75.7C6,176-2,153,0.4,138.8c1.1-6.5,4.3-11,9.1-12.7c6-2.1,13,0.4,21,7.4c9.2,8.2,22.3,18.9,29.1,17.4
	c3.4-0.7,6.6-4.8,10.3-12.8c1.1-2.3,2.5-5.9,4.2-10.3c6.9-17.4,19.8-49.7,39.8-77.1c25-34.1,54.3-51.2,87-50.8
	c38.7,0.5,68,11.9,87,34c19.5,22.6,23.3,50.7,23,70.4c-0.5,39,9,64.8,24.2,65.7c5.9,0.4,14-4.6,21-9c10.4-6.5,22.2-13.8,31.3-5.6
	c4.4,4,6.3,9.9,5.3,16.4c-2.3,15.6-19.5,32.7-44.7,44.6c-38.4,18.1-48.1,33.5-37.3,58.8c0.9,2.2,1.9,4.4,2.9,6.8
	c9.1,20.9,20.5,46.8,20.5,78.4c0,16.8-2.7,30.4-5.4,43.5c-2.9,14.2-5.8,28.9-5.6,48.4v4l-3.8,1.2C317.8,458.3,275.4,472,244.1,472z
	 M151.9,438c20.4,0,36.7,6.5,52.5,12.7c13.4,5.3,26.1,10.3,39.7,10.3c24.3,0,57.2-9.2,68.2-12.5c0.2-18.6,3-32.8,5.8-46.6
	c2.7-13.2,5.2-25.7,5.2-41.4c0-29.3-10.9-54.1-19.6-74c-1-2.4-2-4.6-3-6.8c-16.6-38.7,10.7-58,42.7-73.1
	c24.6-11.6,37.1-26.6,38.5-36.3c0.6-4.4-1.2-6.1-1.9-6.7c-2.9-2.7-10.7,2.1-18.1,6.8c-8.5,5.3-18,11.2-27.5,10.7
	c-22.2-1.3-35.2-30-34.6-76.8c0.2-17.7-3.1-43.1-20.4-63.1c-16.8-19.6-43.4-29.7-78.8-30.1c-28.9-0.3-55.2,15.2-78,46.3
	c-19.2,26.2-31.3,56.5-38.5,74.6c-1.8,4.6-3.3,8.3-4.5,10.9c-3.6,7.8-8.8,17-18,19c-7.8,1.6-17.4-1.1-38.7-19.9c-5.6-5-9-5.7-10-5.3
	c-0.7,0.2-1.5,1.6-1.9,4.1c-1.6,9.4,4.2,28.8,19,40.6c30.6,24.2,40.1,39,40.1,84.3c0,20.3,7.6,34.1,15.5,48.6
	c8.6,15.6,17.5,31.7,17.5,56.4c0,35.6-14.2,57.7-22,67.1l17.8,11.3C118.8,441.7,136.5,438,151.9,438z"/>
<path class="st0" d="M328.9,366c-3,0-5.5-2.5-5.5-5.5l0,0c0-29.3-10.9-54.1-19.6-74c-1-2.4-2-4.6-3-6.8c-1.1-2.8,0.3-6,3.2-7.1
	c2.7-1,5.7,0.2,6.9,2.8c0.9,2.2,1.9,4.4,2.9,6.8c9.2,20.8,20.5,46.8,20.5,78.4C334.4,363.5,331.9,366,328.9,366L328.9,366z"/>
<ellipse transform="matrix(0.1355 -0.9908 0.9908 0.1355 38.128 254.0007)" class="st0" cx="164.6" cy="105.2" rx="22" ry="16"/>
<ellipse transform="matrix(0.14 -0.9901 0.9901 0.14 96.7828 343.5869)" class="st0" cx="246.2" cy="116.1" rx="22" ry="16"/>
</svg>
