<svg id="Layer_1" data-name="Layer 1" xmlns="http://www.w3.org/2000/svg" viewBox="0 0 397 397.88"><defs><style>.cls-1{fill:#f4cebd;}.cls-2{fill:#fff;}</style></defs><circle class="cls-1" cx="198.5" cy="198.94" r="185.05"/><path class="cls-2" d="M332.75,126.64a105.27,105.27,0,0,1-30.3,8.31,52.84,52.84,0,0,0,23.19-29.16,105.94,105.94,0,0,1-33.49,12.78,52.74,52.74,0,0,0-89.83,48.09,149.7,149.7,0,0,1-108.69-55.1A52.83,52.83,0,0,0,110,182a52.61,52.61,0,0,1-23.9-6.61V176a52.8,52.8,0,0,0,42.28,51.71,52.36,52.36,0,0,1-13.88,1.85,50.82,50.82,0,0,1-9.93-1,52.84,52.84,0,0,0,49.25,36.63A105.72,105.72,0,0,1,88.3,287.83a104,104,0,0,1-12.56-.75,148.94,148.94,0,0,0,80.83,23.7c97,0,150-80.34,150-150,0-2.28-.06-4.58-.14-6.83A107,107,0,0,0,332.75,126.64Z"/></svg>