<svg id="Layer_1" data-name="Layer 1" xmlns="http://www.w3.org/2000/svg" viewBox="0 0 397.88 397.88"><defs><style>.cls-1{fill:#f4cebd;}.cls-2{fill:#fff;}</style></defs><circle class="cls-1" cx="198.94" cy="191.53" r="185.05"/><path class="cls-2" d="M142.82,55.28c-44,0-80.13,36.1-80.13,80.12V247.66c0,44,36.1,80.12,80.13,80.12H255.07c44,0,80.12-36.1,80.12-80.12V135.4c0-44-36.09-80.12-80.12-80.12Zm0,24.77H255.07a55.28,55.28,0,0,1,55.35,55.35V247.66A55.28,55.28,0,0,1,255.07,303H142.82a55.29,55.29,0,0,1-55.36-55.35V135.4A55.29,55.29,0,0,1,142.82,80.05Zm129.28,27.1a11.23,11.23,0,1,0,11.22,11.22A11.17,11.17,0,0,0,272.1,107.15Zm-73.16,10.06a74.32,74.32,0,1,0,74.32,74.32A74.53,74.53,0,0,0,198.94,117.21Zm0,24.78a49.55,49.55,0,1,1-49.54,49.54A49.33,49.33,0,0,1,198.94,142Z"/></svg>